<svg width="14" height="9" viewBox="0 0 14 9" fill="none" xmlns="http://www.w3.org/2000/svg">
<path d="M0.868225 0.932859C0.868225 0.836116 0.946651 0.75769 1.04339 0.75769H5.02321C5.11996 0.75769 5.19838 0.836116 5.19838 0.932859V8.36425C5.19838 8.461 5.11996 8.53942 5.02321 8.53942H1.04339C0.946651 8.53942 0.868225 8.461 0.868225 8.36425V0.932859ZM9.32234 0.932859C9.32234 0.836116 9.40077 0.75769 9.49751 0.75769H13.4773C13.5741 0.75769 13.6525 0.836116 13.6525 0.932859V8.36425C13.6525 8.461 13.5741 8.53942 13.4773 8.53942H9.49751C9.40077 8.53942 9.32234 8.461 9.32234 8.36425V0.932859Z" fill="#186648"/>
</svg>
